{
	"asset": {
		"generator": "Khronos glTF Blender I/O v3.4.50",
		"version": "2.0"
	},
	"scene": 0,
	"scenes": [
		{
			"name": "Scene",
			"nodes": [0]
		}
	],
	"nodes": [
		{
			"mesh": 0,
			"name": "Curve",
			"scale": [4.511474609375, 1, 4.511474609375],
			"translation": [0.5005463361740112, 0, -0.4241871237754822]
		}
	],
	"materials": [
		{
			"doubleSided": true,
			"name": "SVGMat.001",
			"pbrMetallicRoughness": {
				"baseColorFactor": [1, 0.5, 1, 1],
				"metallicFactor": 0,
				"roughnessFactor": 0.4000000059604645
			}
		}
	],
	"meshes": [
		{
			"name": "Curve.001",
			"primitives": [
				{
					"attributes": {
						"POSITION": 0,
						"TEXCOORD_0": 1,
						"NORMAL": 2
					},
					"indices": 3,
					"material": 0
				}
			]
		}
	],
	"accessors": [
		{
			"bufferView": 0,
			"componentType": 5126,
			"count": 1120,
			"max": [0.17404058575630188, 0.019999999552965164, -0.030517568811774254],
			"min": [0.05174170434474945, -0.019999999552965164, -0.1951664686203003],
			"type": "VEC3"
		},
		{
			"bufferView": 1,
			"componentType": 5126,
			"count": 1120,
			"type": "VEC2"
		},
		{
			"bufferView": 2,
			"componentType": 5126,
			"count": 1120,
			"type": "VEC3"
		},
		{
			"bufferView": 3,
			"componentType": 5123,
			"count": 2172,
			"type": "SCALAR"
		}
	],
	"bufferViews": [
		{
			"buffer": 0,
			"byteLength": 13440,
			"byteOffset": 0,
			"target": 34962
		},
		{
			"buffer": 0,
			"byteLength": 8960,
			"byteOffset": 13440,
			"target": 34962
		},
		{
			"buffer": 0,
			"byteLength": 13440,
			"byteOffset": 22400,
			"target": 34962
		},
		{
			"buffer": 0,
			"byteLength": 4344,
			"byteOffset": 35840,
			"target": 34963
		}
	],
	"buffers": [
		{
			"byteLength": 40184,
			"uri": "data:application/octet-stream;base64,"
		}
	]
}
